<?xml version="1.0" encoding="utf-8"?>
<!-- Generator: Adobe Illustrator 26.0.3, SVG Export Plug-In . SVG Version: 6.00 Build 0)  -->
<svg version="1.1" id="Laag_1" xmlns="http://www.w3.org/2000/svg" xmlns:xlink="http://www.w3.org/1999/xlink" x="0px" y="0px"
	 viewBox="0 0 387.8 382.7" style="enable-background:new 0 0 387.8 382.7;" xml:space="preserve">
<style type="text/css">
	.st0{fill:#FFFFFF;}
</style>
<path class="st0" d="M79.7,48.7c0.2,0,0.4,0,0.6,0c0.6,0.7,1.1,1.5,1.7,2.1c36.6,36.6,73.2,73.2,109.8,109.8c0.6,0.6,1.3,1.2,2.1,2
	c0.8-0.7,1.5-1.3,2.1-2c36.6-36.6,73.2-73.2,109.8-109.8c0.6-0.6,1.1-1.4,1.7-2.1c0.2,0,0.4,0,0.6,0c9.5,9.5,18.9,18.9,28.4,28.4
	c0,0.2,0,0.4,0,0.6c-0.7,0.6-1.5,1.1-2.1,1.7c-36.6,36.6-73.2,73.2-109.8,109.8c-0.6,0.6-1.2,1.3-2,2.1c0.7,0.8,1.3,1.5,2,2.1
	c36.6,36.6,73.2,73.2,109.8,109.8c0.6,0.6,1.4,1.1,2.1,1.7c0,0.2,0,0.4,0,0.6c-9.5,9.4-19,18.9-29.1,28.9c-38.1-38.1-76-76-114-114
	c-37.6,37.6-75.5,75.5-113.1,113.1c-9.5-9.5-18.9-18.9-28.6-28.6c37.7-37.7,75.6-75.6,113.6-113.6c-37.9-37.9-75.8-75.8-114.2-114.2
	C60.7,67.4,70.2,58,79.7,48.7z"/>
</svg>
