<?xml version="1.0" encoding="utf-8"?>
<!-- Generator: Adobe Illustrator 26.0.3, SVG Export Plug-In . SVG Version: 6.00 Build 0)  -->
<svg version="1.1" id="Laag_1" xmlns="http://www.w3.org/2000/svg" xmlns:xlink="http://www.w3.org/1999/xlink" x="0px" y="0px"
	 viewBox="0 0 657.8 127.9" style="enable-background:new 0 0 657.8 127.9;" xml:space="preserve">
<style type="text/css">
	.st0{fill:#FFFFFF;}
</style>
<g>
	<g>
		<g>
			<path class="st0" d="M36.7,60.1l0.5-0.1l15.8,37.3h18.9L54,55.7l0.6-0.3c9.6-5.1,13.8-12.3,13.8-23.4c0-19.1-11.9-28.4-36.5-28.4
				H3.8v93.8h17.6V60.3h9.4C32.4,60.3,35.3,60.3,36.7,60.1z M21.4,47.4V16.5h8.9c10.5,0,19.9,1.2,19.9,15.5
				c0,14.2-9.4,15.4-19.9,15.4H21.4z"/>
		</g>
		<g>
			<g>
				<rect x="90.1" y="3.6" class="st0" width="17.7" height="56.4"/>
			</g>
			<g>
				<path class="st0" d="M156.3,63.9V3.6h-17.7v59.6c0,15.7-6.7,22.4-22.4,22.4c-13.9,0-21.8-4.3-26.1-6.8v14.6
					c4.5,2.5,12.1,5.7,26.8,5.7C143.8,99.1,156.3,87.9,156.3,63.9z"/>
			</g>
		</g>
		<g>
			<polygon class="st0" points="252.7,97.4 215.5,49.1 249.9,3.6 229.9,3.6 197.9,46.5 197.9,3.6 180.3,3.6 180.3,97.4 197.9,97.4 
				197.9,53 231.2,97.4 			"/>
		</g>
		<g>
			<path class="st0" d="M322,71.9c0-10.6-5.6-18.3-17.6-24.4l-12.2-6c-8.3-4-12.1-8.4-12.1-13.8c0-7.6,6.6-12,18-12
				c9.7,0,17.8,3.1,21.3,5V6.2c-3.6-2.1-11.6-4.4-22.9-4.4c-20.9,0-33.4,10.1-33.4,27.1c0,10.6,5.6,18.3,17.6,24.4l12.2,6
				c8.3,4,12.1,8.4,12.1,13.8c0,7.6-7.3,12.2-19.6,12.2c-8.5,0-16.6-2.1-24-6.1v14.5c3.4,2,12.5,5.4,25.2,5.4
				C308.8,99.1,322,88.9,322,71.9z"/>
		</g>
	</g>
	<g>
		<path class="st0" d="M389.1,90.1c0,1.9,0.2,3.3,0.6,4.1c0.4,0.9,1.1,1.4,2.2,1.7c1,0.3,2.8,0.4,5.1,0.4h10.7
			c3.7,0,6.7-1.1,8.9-3.4c2.2-2.3,3.7-5.5,4.4-9.5c0-0.2,0.2-0.3,0.5-0.2c0.4,0,0.5,0.1,0.5,0.3c-0.6,5.4-0.9,9.9-0.9,13.5
			c0,0.5-0.1,0.9-0.3,1.1c-0.2,0.2-0.6,0.3-1.2,0.3h-45.4c-0.1,0-0.2-0.2-0.2-0.6c0-0.4,0.1-0.6,0.2-0.6c2.5,0,4.3-0.2,5.5-0.5
			c1.1-0.3,1.9-1,2.3-1.9c0.4-0.9,0.6-2.4,0.6-4.4V45c0-2-0.2-3.4-0.6-4.3c-0.4-0.9-1.2-1.6-2.3-1.9c-1.1-0.4-3-0.5-5.5-0.5
			c-0.1,0-0.2-0.2-0.2-0.6s0.1-0.6,0.2-0.6l4.8,0.1c2.8,0.1,5,0.2,6.7,0.2c1.8,0,4.1-0.1,6.9-0.2l4.7-0.1c0.2,0,0.3,0.2,0.3,0.6
			s-0.1,0.6-0.3,0.6c-2.4,0-4.2,0.2-5.4,0.5c-1.1,0.4-1.9,1-2.4,2c-0.4,1-0.6,2.4-0.6,4.4V90.1z"/>
		<path class="st0" d="M428.3,97.9c0-0.4,0.1-0.6,0.2-0.6c1.8,0,3.1-0.2,4-0.5s1.5-1,1.8-2c0.3-0.9,0.5-2.4,0.5-4.3V72.2
			c0-2.4-0.2-4.1-0.7-5.1c-0.5-1-1.3-1.6-2.5-1.6c-1.2,0-2.7,0.5-4.4,1.4h-0.1c-0.3,0-0.5-0.2-0.6-0.5c-0.1-0.3-0.1-0.6,0.1-0.7
			l12.8-5.9l0.4-0.1c0.1,0,0.3,0.1,0.5,0.2c0.2,0.2,0.3,0.3,0.3,0.5c0,0.5,0,1.8-0.1,3.9c-0.1,2.2-0.1,4.7-0.1,7.7v18.5
			c0,2,0.2,3.4,0.5,4.3c0.3,0.9,0.9,1.6,1.8,1.9c0.9,0.4,2.2,0.5,3.9,0.5c0.2,0,0.3,0.2,0.3,0.6c0,0.4-0.1,0.6-0.3,0.6
			c-1.5,0-2.7,0-3.6-0.1l-5.3-0.1l-5.3,0.1c-0.9,0.1-2.2,0.1-3.7,0.1C428.4,98.5,428.3,98.3,428.3,97.9z M433.6,47.1
			c-0.8-0.7-1.1-1.7-1.1-3c0-1.3,0.4-2.3,1.1-3c0.8-0.7,1.8-1.1,3.2-1.1c1.3,0,2.3,0.4,3,1.1c0.7,0.7,1.1,1.7,1.1,3
			c0,1.3-0.4,2.3-1.1,3c-0.7,0.7-1.7,1.1-3,1.1C435.4,48.2,434.3,47.8,433.6,47.1z"/>
		<path class="st0" d="M488.7,61.4c2.4,1.4,4.4,3.4,5.8,6.1c1.4,2.7,2.2,6,2.2,10c0,4.7-1,8.8-3.1,12.1c-2.1,3.4-4.8,5.9-8.1,7.6
			c-3.3,1.7-6.8,2.6-10.5,2.6c-5,0-9.5-1.4-13.4-4.3l-7.5,3.5H454c-0.3,0-0.4-0.1-0.5-0.4c-0.1-0.3,0-0.5,0.2-0.6
			c2.1-1.4,3.6-2.8,4.4-4.1c0.9-1.3,1.3-3.1,1.3-5.6V39.8c0-2.4-0.2-4.1-0.7-5.1c-0.5-1-1.3-1.6-2.5-1.6c-0.9,0-2.4,0.4-4.4,1.3
			h-0.2c-0.2,0-0.3-0.2-0.4-0.5c-0.1-0.3,0-0.5,0.1-0.6l12.3-6l0.5-0.1c0.1,0,0.3,0.1,0.5,0.2c0.2,0.2,0.3,0.3,0.3,0.5v39.8
			c2.5-2.6,5-4.7,7.5-6.2c2.5-1.5,5.3-2.3,8.5-2.3C483.6,59.3,486.2,60,488.7,61.4z M486.9,93.5c2.1-2.9,3.2-7.2,3.2-12.7
			c0-5.9-1.1-10.4-3.4-13.6c-2.3-3.1-5.3-4.7-9.1-4.7c-2.2,0-4.4,0.6-6.4,1.8c-2,1.2-4.1,2.9-6.3,5.1v16.1c0,2.9,0.7,5.2,2.1,7.1
			c1.4,1.8,3.1,3.2,5.2,4c2,0.9,4,1.3,5.9,1.3C481.9,97.9,484.8,96.4,486.9,93.5z"/>
		<path class="st0" d="M531.4,60.9c1.3,0.8,2,1.7,2,2.9c0,0.9-0.3,1.6-0.8,2.2c-0.6,0.6-1.4,0.9-2.4,0.9c-0.6,0-1.1-0.1-1.5-0.3
			c-0.4-0.2-0.9-0.6-1.5-1c-0.6-0.5-1.1-0.9-1.7-1.2c-0.5-0.3-1.1-0.4-1.9-0.4c-0.9,0-1.8,0.4-2.7,1.1c-1,0.7-2.4,2.3-4.5,4.6v21
			c0,2,0.2,3.4,0.7,4.3c0.5,0.9,1.4,1.6,2.7,1.9c1.3,0.4,3.3,0.5,6.1,0.5c0.3,0,0.4,0.2,0.4,0.6c0,0.4-0.1,0.6-0.4,0.6
			c-2.1,0-3.8,0-5-0.1l-7.3-0.1l-5.4,0.1c-0.9,0.1-2,0.1-3.5,0.1c-0.2,0-0.3-0.2-0.3-0.6c0-0.4,0.1-0.6,0.3-0.6
			c1.8,0,3.1-0.2,3.9-0.5c0.9-0.4,1.4-1,1.7-1.9c0.3-0.9,0.4-2.4,0.4-4.3V71.1c0-2.2-0.3-3.8-0.8-4.8c-0.5-1-1.4-1.5-2.7-1.5
			c-1,0-2.8,0.5-5.3,1.5h-0.2c-0.3,0-0.4-0.1-0.5-0.4c-0.1-0.3,0-0.5,0.2-0.6l11.4-5.4l0.6-0.1c0.6,0,1.2,0.8,1.9,2.3
			c0.7,1.5,1,3.4,1,5.8v0.1c2.7-3.1,4.8-5.3,6.4-6.4c1.6-1.1,3.1-1.7,4.5-1.7C528.7,59.7,530.1,60.1,531.4,60.9z"/>
		<path class="st0" d="M575.2,93.2c0.3,0,0.4,0.1,0.5,0.4c0.1,0.3,0,0.5-0.3,0.6l-10.1,4.8c-0.3,0.1-0.5,0.2-0.8,0.2
			c-0.9,0-1.6-0.6-2.3-1.7c-0.7-1.1-1.1-2.7-1.3-4.7l-5.1,3.3c-1.6,1-3.1,1.8-4.3,2.3c-1.2,0.5-2.6,0.7-3.9,0.7
			c-2.4,0-4.3-0.6-5.7-1.9c-1.3-1.3-2-2.9-2-4.9c0-2,0.8-3.7,2.4-5.1c1.6-1.4,4.2-2.8,7.8-4.1l10.8-4v-6.7c0-7.3-2.1-11-6.2-11
			c-2.2,0-3.9,0.7-5.1,2.2c-1.1,1.5-1.9,3.2-2.3,5.1c-0.2,1.2-0.6,2.1-1.1,2.9c-0.5,0.8-1.4,1.1-2.7,1.1c-1,0-1.9-0.3-2.4-0.9
			c-0.6-0.6-0.8-1.3-0.8-2.1c0-1.6,1-3.1,3-4.7c2-1.6,4.5-2.9,7.3-3.9c2.8-1,5.3-1.6,7.6-1.6c2.7,0,4.7,0.9,6.1,2.6
			c1.4,1.7,2.1,4.2,2.1,7.4v18.4c0,2.3,0.3,4,0.9,5c0.6,1,1.6,1.6,2.9,1.6c1.2,0,2.9-0.4,4.8-1.3H575.2z M560.9,91.5V91V80.5
			l-9.1,3.5c-1.8,0.7-3.2,1.6-4,2.5c-0.8,0.9-1.2,2.1-1.2,3.4c0,1.6,0.5,2.9,1.5,4c1,1.1,2.3,1.6,4,1.6c1.3,0,2.9-0.5,4.7-1.6
			L560.9,91.5z"/>
		<path class="st0" d="M606.8,60.9c1.3,0.8,2,1.7,2,2.9c0,0.9-0.3,1.6-0.8,2.2c-0.6,0.6-1.4,0.9-2.4,0.9c-0.6,0-1.1-0.1-1.5-0.3
			c-0.4-0.2-0.9-0.6-1.5-1c-0.6-0.5-1.1-0.9-1.7-1.2c-0.5-0.3-1.1-0.4-1.9-0.4c-0.9,0-1.8,0.4-2.7,1.1c-1,0.7-2.4,2.3-4.5,4.6v21
			c0,2,0.2,3.4,0.7,4.3c0.5,0.9,1.4,1.6,2.7,1.9c1.3,0.4,3.3,0.5,6.1,0.5c0.3,0,0.4,0.2,0.4,0.6c0,0.4-0.1,0.6-0.4,0.6
			c-2.1,0-3.8,0-5-0.1l-7.3-0.1l-5.4,0.1c-0.9,0.1-2,0.1-3.5,0.1c-0.2,0-0.3-0.2-0.3-0.6c0-0.4,0.1-0.6,0.3-0.6
			c1.8,0,3.1-0.2,3.9-0.5c0.9-0.4,1.4-1,1.7-1.9c0.3-0.9,0.4-2.4,0.4-4.3V71.1c0-2.2-0.3-3.8-0.8-4.8c-0.5-1-1.4-1.5-2.7-1.5
			c-1,0-2.8,0.5-5.3,1.5h-0.2c-0.3,0-0.4-0.1-0.5-0.4c-0.1-0.3,0-0.5,0.2-0.6l11.4-5.4l0.6-0.1c0.6,0,1.2,0.8,1.9,2.3
			c0.7,1.5,1,3.4,1,5.8v0.1c2.7-3.1,4.8-5.3,6.4-6.4c1.6-1.1,3.1-1.7,4.5-1.7S605.5,60.1,606.8,60.9z"/>
		<path class="st0" d="M654.1,61.2c0,0.4-0.1,0.6-0.3,0.6c-1.6,0-3,0.6-4.2,1.8c-1.2,1.2-2.3,3.1-3.3,5.8l-12,31.9
			c-2.4,6.4-4.7,11.3-6.8,14.9c-2.1,3.6-4.3,6.1-6.6,7.7c-2.3,1.5-4.9,2.3-7.8,2.3c-1.4,0-2.6-0.3-3.6-1c-0.9-0.7-1.4-1.6-1.4-2.8
			c0-0.9,0.3-1.6,0.9-2.2c0.6-0.5,1.3-0.8,2.2-0.8c0.9,0,1.6,0.1,2.2,0.3c0.6,0.2,1.2,0.5,1.9,1c0.1,0.1,0.5,0.3,1.1,0.6
			c0.6,0.3,1.4,0.5,2.3,0.5c1.6,0,3.1-0.7,4.5-2.1c1.4-1.4,2.9-3.7,4.5-6.9c1.6-3.2,3.5-7.7,5.7-13.4l-14.9-30.6
			c-1.5-2.9-2.7-4.8-3.4-5.7c-0.8-0.9-1.8-1.3-3-1.3c-0.1,0-0.2-0.2-0.2-0.6c0-0.4,0.1-0.6,0.2-0.6l3.3,0.1c0.8,0.1,1.9,0.1,3.2,0.1
			l6.3-0.1c0.9-0.1,2.2-0.1,3.8-0.1c0.1,0,0.2,0.2,0.2,0.6c0,0.4-0.1,0.6-0.2,0.6c-3.8,0-5.7,0.8-5.7,2.3c0,0.4,0.2,0.9,0.5,1.6
			l13,26.6l7.9-22.6c0.5-1.6,0.8-2.8,0.8-3.7c0-1.5-0.6-2.6-1.8-3.2c-1.2-0.6-3.1-0.9-5.8-0.9c-0.1,0-0.2-0.2-0.2-0.6
			c0-0.4,0.1-0.6,0.2-0.6c1.8,0,3.1,0,4,0.1l5.9,0.1l3.5-0.1c0.7-0.1,1.7-0.1,3-0.1C654,60.6,654.1,60.8,654.1,61.2z"/>
	</g>
</g>
</svg>
